<svg xmlns="http://www.w3.org/2000/svg" viewBox="0 0 200 200"><defs><linearGradient id="fg" gradientUnits="userSpaceOnUse" x1="20" y1="20" x2="180" y2="180"><stop offset="0" stop-color="#ff7ad9"/><stop offset=".55" stop-color="#b86bff"/><stop offset="1" stop-color="#7d5cff"/></linearGradient><radialGradient id="bg" cx=".5" cy=".38" r=".75"><stop offset="0" stop-color="#1f1533"/><stop offset=".6" stop-color="#0e0b17"/><stop offset="1" stop-color="#07060c"/></radialGradient></defs><rect width="200" height="200" rx="46" fill="url(#bg)"/><g transform="translate(100 100) scale(0.74) translate(-100 -100)"><circle cx="100.0" cy="38.0" r="3.5" fill="url(#fg)"/><circle cx="113.8" cy="39.6" r="3.8" fill="url(#fg)"/><circle cx="126.9" cy="44.1" r="4.1" fill="url(#fg)"/><circle cx="138.7" cy="51.5" r="4.4" fill="url(#fg)"/><circle cx="148.5" cy="61.3" r="4.7" fill="url(#fg)"/><circle cx="155.9" cy="73.1" r="5.0" fill="url(#fg)"/><line x1="152.9" y1="87.9" x2="163.3" y2="85.6" stroke="url(#fg)" stroke-width="8.5" stroke-linecap="round"/><line x1="155.4" y1="100.0" x2="162.7" y2="100.0" stroke="url(#fg)" stroke-width="8.5" stroke-linecap="round"/><line x1="151.4" y1="111.7" x2="166.2" y2="115.1" stroke="url(#fg)" stroke-width="8.5" stroke-linecap="round"/><line x1="149.5" y1="123.8" x2="157.3" y2="127.6" stroke="url(#fg)" stroke-width="8.5" stroke-linecap="round"/><line x1="141.9" y1="133.4" x2="151.8" y2="141.3" stroke="url(#fg)" stroke-width="8.5" stroke-linecap="round"/><line x1="134.3" y1="143.0" x2="139.7" y2="149.8" stroke="url(#fg)" stroke-width="8.5" stroke-linecap="round"/><line x1="123.7" y1="149.3" x2="127.8" y2="157.8" stroke="url(#fg)" stroke-width="8.5" stroke-linecap="round"/><line x1="111.7" y1="151.4" x2="115.1" y2="166.1" stroke="url(#fg)" stroke-width="8.5" stroke-linecap="round"/><line x1="100.0" y1="153.6" x2="100.0" y2="166.1" stroke="url(#fg)" stroke-width="8.5" stroke-linecap="round"/><line x1="89.0" y1="148.1" x2="83.5" y2="172.3" stroke="url(#fg)" stroke-width="8.5" stroke-linecap="round"/><line x1="76.3" y1="149.1" x2="72.0" y2="158.1" stroke="url(#fg)" stroke-width="8.5" stroke-linecap="round"/><line x1="68.9" y1="139.0" x2="54.5" y2="157.1" stroke="url(#fg)" stroke-width="8.5" stroke-linecap="round"/><line x1="58.3" y1="133.2" x2="47.8" y2="141.6" stroke="url(#fg)" stroke-width="8.5" stroke-linecap="round"/><line x1="51.1" y1="123.5" x2="41.5" y2="128.2" stroke="url(#fg)" stroke-width="8.5" stroke-linecap="round"/><line x1="48.8" y1="111.7" x2="33.5" y2="115.2" stroke="url(#fg)" stroke-width="8.5" stroke-linecap="round"/><line x1="48.2" y1="100.0" x2="30.4" y2="100.0" stroke="url(#fg)" stroke-width="8.5" stroke-linecap="round"/><line x1="54.4" y1="89.6" x2="23.2" y2="82.5" stroke="url(#fg)" stroke-width="8.5" stroke-linecap="round"/><line x1="51.9" y1="76.8" x2="40.0" y2="71.1" stroke="url(#fg)" stroke-width="8.5" stroke-linecap="round"/><line x1="64.3" y1="71.6" x2="36.7" y2="49.5" stroke="url(#fg)" stroke-width="8.5" stroke-linecap="round"/><line x1="67.6" y1="59.3" x2="56.9" y2="46.0" stroke="url(#fg)" stroke-width="8.5" stroke-linecap="round"/><line x1="77.9" y1="54.1" x2="69.2" y2="36.0" stroke="url(#fg)" stroke-width="8.5" stroke-linecap="round"/><line x1="88.1" y1="48.0" x2="85.1" y2="34.9" stroke="url(#fg)" stroke-width="8.5" stroke-linecap="round"/><circle cx="100" cy="100" r="24" fill="url(#fg)"/></g></svg>